Coordinates
version=1
nRows=6
nColumns=46
inDegrees=yes

Units are S.I. units (second, meters, Newtons, ...)
Angles are in degrees.

endheader
time	pelvis_tilt	pelvis_list	pelvis_rotation	pelvis_tx	pelvis_ty	pelvis_tz	bb_angle	bb_tx	bb_ty	bb_tz	hip_flexion_r	hip_adduction_r	hip_rotation_r	knee_angle_r	knee_angle_r_beta	ankle_angle_r	subtalar_angle_r	mtp_angle_r	crank_angle_r	hip_flexion_l	hip_adduction_l	hip_rotation_l	knee_angle_l	knee_angle_l_beta	ankle_angle_l	subtalar_angle_l	mtp_angle_l	crank_angle_l	lumbar_extension	lumbar_bending	lumbar_rotation	arm_flex_r	arm_add_r	arm_rot_r	elbow_flex_r	pro_sup_r	wrist_flex_r	wrist_dev_r	arm_flex_l	arm_add_l	arm_rot_l	elbow_flex_l	pro_sup_l	wrist_flex_l	wrist_dev_l
      0.00000000	    -11.26317612	     -2.84068791	     -0.73628338	      0.06055211	      1.14747005	     -0.24269938	      0.00000000	      0.50000000	      0.00000000	      0.25000000	     82.26891032	      1.48693614	      4.29989915	     91.49248575	      1.59684512	     -0.15357467	     -9.42719819	      0.00000000	      0.00000000	     44.05274843	     -6.50829217	      1.77592775	     65.83399788	      1.14902002	      3.69213896	    -10.21534123	      0.00000000	      0.00000000	    -58.75670830	      1.47264626	      3.31542230	     87.92952732	    -15.00951153	     40.54760016	     46.81193856	     44.30276417	      0.00000000	      0.00000000	     87.54302041	    -13.15677251	     37.04977562	     41.84968877	     45.24149229	      0.00000000	      0.00000000
      0.00500000	    -11.33806485	     -2.90537146	     -0.73663564	      0.06053310	      1.14730497	     -0.24274470	      0.00000000	      0.50000000	      0.00000000	      0.25000000	     82.35539893	      1.50517757	      4.25543688	     91.49967477	      1.59697059	     -0.14712033	     -9.36547004	      0.00000000	      0.00000000	     44.14858155	     -6.54536047	      1.84306519	     65.84990696	      1.14929769	      3.71378825	    -10.32570188	      0.00000000	      0.00000000	    -58.61207355	      1.56119495	      3.28820468	     87.99182077	    -14.67334495	     40.68168151	     46.18169832	     44.07533966	      0.00000000	      0.00000000	     87.48342746	    -13.10065759	     36.88745675	     41.52853705	     44.77682042	      0.00000000	      0.00000000
      0.01000000	    -11.34815744	     -2.93204700	     -0.71909228	      0.06051279	      1.14727338	     -0.24280587	      0.00000000	      0.50000000	      0.00000000	      0.25000000	     82.36050348	      1.48431567	      4.24240655	     91.50564122	      1.59707472	     -0.00414378	     -9.16063990	      0.00000000	      0.00000000	     44.16784549	     -6.55850097	      1.87670264	     65.86776020	      1.14960929	      3.81883679	    -10.18462507	      0.00000000	      0.00000000	    -58.60365683	      1.60914368	      3.28430207	     88.04964192	    -14.76618946	     40.99596433	     46.29660807	     44.04708173	      0.00000000	      0.00000000	     87.49515112	    -13.28319066	     37.21683978	     41.72714443	     44.64808973	      0.00000000	      0.00000000
      0.01500000	    -11.18939796	     -2.97619616	     -0.64177624	      0.06062218	      1.14733012	     -0.24271880	      0.00000000	      0.50000000	      0.00000000	      0.25000000	     82.25892810	      1.38058227	      4.22433268	     91.55761976	      1.59798192	     -0.12408220	     -9.05324016	      0.00000000	      0.00000000	     44.01889360	     -6.56805654	      1.93904508	     65.88374127	      1.14988821	      3.80404095	    -10.17211257	      0.00000000	      0.00000000	    -58.88205938	      2.01482781	      3.32422439	     88.08607917	    -14.69576125	     40.79853048	     47.04094507	     44.12966332	      0.00000000	      0.00000000	     87.35053303	    -13.76105060	     36.94250708	     42.25841716	     44.68222900	      0.00000000	      0.00000000
      0.02000000	    -11.33659937	     -3.61546272	     -0.78935400	      0.06060590	      1.14631017	     -0.24137089	      0.00000000	      0.50000000	      0.00000000	      0.25000000	     82.42682349	      1.92546245	      3.64953028	     91.50311588	      1.59703065	     -0.34523984	     -9.37866565	      0.00000000	      0.00000000	     44.31750853	     -7.05078747	      2.70425568	     66.06110203	      1.15298374	      3.52901274	     -5.61690742	      0.00000000	      0.00000000	    -58.87531545	      2.39336060	      4.26200891	     88.24462430	    -16.40613579	     42.87866441	     48.99922779	     44.62460897	      0.00000000	      0.00000000	     87.50938805	    -13.83876068	     39.22583289	     42.75064150	     45.14726394	      0.00000000	      0.00000000
      0.02500000	    -11.42282027	     -3.11532541	     -0.81762500	      0.06042908	      1.14705604	     -0.24249460	      0.00000000	      0.50000000	      0.00000000	      0.25000000	     82.46078577	      1.66342971	      4.10672321	     91.52157675	      1.59735285	     -0.11110633	     -9.32862490	      0.00000000	      0.00000000	     44.30377231	     -6.82419885	      1.88518910	     65.92250108	      1.15056469	      3.73574904	    -10.19405104	      0.00000000	      0.00000000	    -58.59415412	      1.55788668	      3.79645081	     87.97363186	    -16.13265744	     42.22381152	     47.93865026	     44.36253196	      0.00000000	      0.00000000	     87.70240658	    -13.49341386	     38.76467998	     42.16029520	     44.99995024	      0.00000000	      0.00000000
